<svg xmlns="http://www.w3.org/2000/svg" xmlns:xlink="http://www.w3.org/1999/xlink" viewBox="0,0,256,256" width="20px" height="20px" fill-rule="nonzero"><g fill="#ffe601" fill-rule="nonzero" stroke="none" stroke-width="1" stroke-linecap="butt" stroke-linejoin="miter" stroke-miterlimit="10" stroke-dasharray="" stroke-dashoffset="0" font-family="none" font-weight="none" font-size="none" text-anchor="none" style="mix-blend-mode: normal"><g transform="scale(4,4)"><path d="M56,60.085h-4v-16h-36v16h-8v-20h48zM32.5,9c6.341,0 11.5,5.159 11.5,11.5c0,6.341 -5.159,11.5 -11.5,11.5c-6.341,0 -11.5,-5.159 -11.5,-11.5c0,-6.341 5.159,-11.5 11.5,-11.5M32.5,5c-8.56,0 -15.5,6.94 -15.5,15.5c0,8.56 6.94,15.5 15.5,15.5c8.56,0 15.5,-6.94 15.5,-15.5c0,-8.56 -6.94,-15.5 -15.5,-15.5z"></path></g></g></svg>